# xmcd
#
# Track frame offsets: 
#        150
#        18157
#        38257
#        52840
#        68872
#        83372
#        97570
#        106737
#        121985
#        139285
#        154230
#        166160
#        181857
#        202957
#        215612
#        231642
#        245300
#        261602
#
# Disc length: 3626 seconds
#
# Revision: 7
# Processed by: cddbd v1.5.2PL0 Copyright (c) Steve Scherf et al.
# Submitted via: ExactAudioCopyFreeDBPlugin 1.0
#
DISCID=e00e2812
DTITLE=Various Artist - Blind Pig Records 20th Anniversary Collection [disk 2
DTITLE=]
DYEAR=1997
DGENRE=Blues
TTITLE0=Studebaker John and The Hawks - Two Time Boogie
TTITLE1=Deborah Coleman - My Heart Bleeds Blue
TTITLE2=Chris Cain - Hey Sweet Baby
TTITLE3=Charlie Musslewhite - Harpin' on a Riff
TTITLE4=Henry Gray - Cold Chills
TTITLE5=Al Rapone - La Vierge
TTITLE6=Preacher Boy - I Won't Be There
TTITLE7=Johnny Shines - Blues Come to Texas
TTITLE8=Smokey Wilson - I Got Something on You Baby
TTITLE9=Eddie C. Campbell - I Been Thinkin'
TTITLE10=Eddie Clearwater - That's My Baby
TTITLE11=Sarah Brown - Bad Thing
TTITLE12=Otis Rush - If I Could Reach Out (And Help Somebody)
TTITLE13=Boogie Woogie Red - Old Time Shuffle
TTITLE14=Snooky Pryor - Crazy 'Bout My Baby
TTITLE15=Roosevelt Sykes - I Wonder
TTITLE16=Walter Horton - If I Get Lucky
TTITLE17=Commander Cody - Let's Rock!
EXTD=LABEL =Blind Pig Records\nID =BPCD2001\nUPC =019148-200128\nCO
EXTD=PYRIGHT=1997
EXTT0=
EXTT1=
EXTT2=
EXTT3=
EXTT4=
EXTT5=
EXTT6=
EXTT7=
EXTT8=
EXTT9=
EXTT10=
EXTT11=
EXTT12=
EXTT13=
EXTT14=
EXTT15=
EXTT16=
EXTT17=
PLAYORDER=
